# xmcd CD database file
#
# Track frame offsets:
#	150
#	7541
#	47290
#	123948
#	163456
#	213994
#	272825
#
# Disc length: 4261 seconds
#
# Revision: 1
# Processed by: cddbd v1.5.2PL0 Copyright (c) Steve Scherf et al.
# Submitted via: CDex 1.51
#
DISCID=5210a307
DTITLE=????? - ??
DYEAR=1997
DGENRE=Jazz
TTITLE0=??????
TTITLE1=P-chan
TTITLE2=????
TTITLE3=???????
TTITLE4=??????
TTITLE5=????
TTITLE6=?
EXTD=YEAR: 1997
EXTT0=
EXTT1=
EXTT2=
EXTT3=
EXTT4=
EXTT5=
EXTT6=
PLAYORDER=
